<?xml version="1.0" encoding="UTF-8"?>
<svg id="Layer_1" data-name="Layer 1" xmlns="http://www.w3.org/2000/svg" viewBox="0 0 306.84 202.06">
  <defs>
    <style>
      .cls-1 {
        fill: #042749;
      }

      .cls-2 {
        fill: #005778;
      }

      .cls-3 {
        fill: #13c4dc;
      }

      .cls-4 {
        fill: #18a6c7;
      }

      .cls-5 {
        fill: #18bdc2;
      }

      .cls-6 {
        fill: #4bf4fb;
      }

      .cls-7 {
        fill: #0449c7;
      }
    </style>
  </defs>
  <path class="cls-7" d="m153.43,159.29l-58.18-58.26,16.78-16.81h0s41.4-41.46,41.4-41.46l41.39,41.45s0,0,.01.02l16.77,16.8-58.18,58.26Z"/>
  <path class="cls-3" d="m153.43,42.76L189.18,6.96c9.27-9.28,24.3-9.28,33.56,0l41.4,41.45-52.54,52.61-16.77-16.8s0-.01-.02-.02l-41.38-41.45Z"/>
  <path class="cls-5" d="m211.6,101.03l52.54-52.61,35.75,35.8c9.27,9.28,9.27,24.33,0,33.61l-35.75,35.8-52.54-52.6Z"/>
  <path class="cls-6" d="m211.6,101.03l52.53,52.61-41.39,41.45c-9.27,9.28-24.3,9.28-33.56,0l-35.76-35.81,58.18-58.26Z"/>
  <path class="cls-1" d="m95.25,101.03l-52.54-52.61L84.1,6.96c9.27-9.28,24.3-9.28,33.57,0l34.12,34.17,1.63,1.64-41.39,41.45s0,0,0,0l-16.77,16.81Z"/>
  <path class="cls-2" d="m95.25,101.03l-52.54,52.61L6.95,117.84c-9.27-9.28-9.28-24.33,0-33.61l35.75-35.8,52.54,52.61Z"/>
  <path class="cls-4" d="m84.1,195.09l-41.39-41.45,52.54-52.6,58.18,58.26-35.76,35.8c-9.28,9.29-24.3,9.29-33.57,0Z"/>
</svg>